SeanMedium.ufo
<glyph name="exclam" format="1">
  <advance width="413"/>
  <unicode hex="0021"/>
  <outline>
    <contour>
      <point x="201" y="229" type="line"/>
      <point x="266" y="229" type="line"/>
      <point x="268" y="722" type="line"/>
      <point x="197" y="722" type="line"/>
    </contour>
    <contour>
      <point x="198" y="130" type="line"/>
      <point x="198" y="0" type="line"/>
      <point x="268" y="0" type="line"/>
      <point x="268" y="130" type="line"/>
    </contour>
  </outline>
</glyph>
<glyph name="quotedbl" format="1">
  <advance width="446"/>
  <unicode hex="0022"/>
  <outline>
    <contour>
      <point x="265" y="625" type="line"/>
      <point x="330" y="625" type="line"/>
      <point x="370" y="803" type="line"/>
      <point x="303" y="803" type="line"/>
    </contour>
    <contour>
      <point x="83" y="625" type="line"/>
      <point x="148" y="625" type="line"/>
      <point x="188" y="803" type="line"/>
      <point x="121" y="803" type="line"/>
    </contour>
  </outline>
</glyph>
<glyph name="quotesingle" format="1">
  <advance width="263"/>
  <unicode hex="0027"/>
  <outline>
    <contour>
      <point x="87" y="625" type="line"/>
      <point x="152" y="625" type="line"/>
      <point x="191" y="803" type="line"/>
      <point x="127" y="803" type="line"/>
    </contour>
  </outline>
</glyph>
<glyph name="parenleft" format="1">
  <advance width="455"/>
  <unicode hex="0028"/>
  <outline>
    <contour>
      <point x="365" y="830" type="curve"/>
      <point x="311" y="871" type="line"/>
      <point x="158" y="727"/>
      <point x="69" y="529"/>
      <point x="69" y="310" type="curve" smooth="yes"/>
      <point x="69" y="97"/>
      <point x="156" y="-109"/>
      <point x="312" y="-256" type="curve"/>
      <point x="360" y="-208" type="line"/>
      <point x="217" y="-73"/>
      <point x="137" y="114"/>
      <point x="137" y="309" type="curve" smooth="yes"/>
      <point x="137" y="519"/>
      <point x="221" y="698"/>
    </contour>
  </outline>
</glyph>
<glyph name="parenright" format="1">
  <advance width="456"/>
  <unicode hex="0029"/>
  <outline>
    <contour>
      <point x="305" y="305" type="curve" smooth="yes"/>
      <point x="305" y="102"/>
      <point x="219" y="-92"/>
      <point x="66" y="-227" type="curve"/>
      <point x="117" y="-266" type="line"/>
      <point x="281" y="-121"/>
      <point x="374" y="87"/>
      <point x="374" y="305" type="curve" smooth="yes"/>
      <point x="374" y="535"/>
      <point x="280" y="730"/>
      <point x="120" y="874" type="curve"/>
      <point x="73" y="825" type="line"/>
      <point x="219" y="694"/>
      <point x="305" y="511"/>
    </contour>
  </outline>
</glyph>
<glyph name="plus" format="1">
  <advance width="756"/>
  <unicode hex="002B"/>
  <outline>
    <contour>
      <point x="96" y="274" type="line"/>
      <point x="352" y="274" type="line"/>
      <point x="351" y="17" type="line"/>
      <point x="417" y="17" type="line"/>
      <point x="418" y="273" type="line"/>
      <point x="664" y="273" type="line"/>
      <point x="664" y="338" type="line"/>
      <point x="418" y="338" type="line"/>
      <point x="419" y="559" type="line"/>
      <point x="353" y="559" type="line"/>
      <point x="352" y="338" type="line"/>
      <point x="96" y="338" type="line"/>
    </contour>
  </outline>
</glyph>
<glyph name="comma" format="1">
  <advance width="333"/>
  <unicode hex="002C"/>
  <outline>
    <contour>
      <point x="58" y="-104" type="line"/>
      <point x="117" y="-104" type="line"/>
      <point x="233" y="88" type="line"/>
      <point x="157" y="88" type="line"/>
    </contour>
  </outline>
</glyph>
<glyph name="hyphen" format="1">
  <advance width="397"/>
  <unicode hex="002D"/>
  <outline>
    <contour>
      <point x="59" y="291" type="line"/>
      <point x="59" y="226" type="line"/>
      <point x="343" y="226" type="line"/>
      <point x="343" y="291" type="line"/>
    </contour>
  </outline>
</glyph>
<glyph name="slash" format="1">
  <advance width="572"/>
  <unicode hex="002F"/>
  <outline>
    <contour>
      <point x="121" y="-64" type="line"/>
      <point x="536" y="802" type="line"/>
      <point x="466" y="802" type="line"/>
      <point x="50" y="-64" type="line"/>
    </contour>
  </outline>
</glyph>
<glyph name="zero" format="1">
  <advance width="579"/>
  <unicode hex="0030"/>
  <outline>
    <contour>
      <point x="130" y="247" type="curve" smooth="yes"/>
      <point x="130" y="350"/>
      <point x="198" y="441"/>
      <point x="294" y="441" type="curve" smooth="yes"/>
      <point x="392" y="441"/>
      <point x="455" y="350"/>
      <point x="455" y="250" type="curve" smooth="yes"/>
      <point x="455" y="143"/>
      <point x="383" y="52"/>
      <point x="290" y="52" type="curve" smooth="yes"/>
      <point x="193" y="52"/>
      <point x="130" y="144"/>
    </contour>
    <contour>
      <point x="293" y="-12" type="curve" smooth="yes"/>
      <point x="423" y="-11"/>
      <point x="524" y="105"/>
      <point x="524" y="248" type="curve" smooth="yes"/>
      <point x="524" y="386"/>
      <point x="425" y="505"/>
      <point x="291" y="505" type="curve" smooth="yes"/>
      <point x="158" y="505"/>
      <point x="60" y="386"/>
      <point x="60" y="249" type="curve" smooth="yes"/>
      <point x="60" y="104"/>
      <point x="160" y="-12"/>
    </contour>
  </outline>
</glyph>
<glyph name="one" format="1">
  <advance width="323"/>
  <unicode hex="0031"/>
  <outline>
    <contour>
      <point x="181" y="484" type="line"/>
      <point x="9" y="346" type="line"/>
      <point x="53" y="299" type="line"/>
      <point x="181" y="401" type="line"/>
      <point x="182" y="0" type="line"/>
      <point x="253" y="0" type="line"/>
      <point x="252" y="484" type="line"/>
    </contour>
  </outline>
</glyph>
<glyph name="two" format="1">
  <advance width="453"/>
  <unicode hex="0032"/>
  <outline>
    <contour>
      <point x="317" y="325" type="curve" smooth="yes"/>
      <point x="317" y="304"/>
      <point x="313" y="283"/>
      <point x="305" y="261" type="curve" smooth="yes"/>
      <point x="262" y="145"/>
      <point x="140" y="82"/>
      <point x="14" y="82" type="curve"/>
      <point x="14" y="18" type="line"/>
      <point x="449" y="18" type="line"/>
      <point x="449" y="82" type="line"/>
      <point x="196" y="82" type="line"/>
      <point x="282" y="117"/>
      <point x="351" y="187"/>
      <point x="373" y="281" type="curve" smooth="yes"/>
      <point x="377" y="298"/>
      <point x="379" y="315"/>
      <point x="379" y="332" type="curve" smooth="yes"/>
      <point x="379" y="428"/>
      <point x="308" y="520"/>
      <point x="192" y="520" type="curve" smooth="yes"/>
      <point x="120" y="520"/>
      <point x="55" y="477"/>
      <point x="19" y="404" type="curve"/>
      <point x="68" y="366" type="line"/>
      <point x="95" y="420"/>
      <point x="142" y="455"/>
      <point x="194" y="455" type="curve" smooth="yes"/>
      <point x="273" y="455"/>
      <point x="317" y="390"/>
    </contour>
  </outline>
</glyph>
<glyph name="three" format="1">
  <advance width="500"/>
  <unicode hex="0033"/>
  <outline>
    <contour>
      <point x="336" y="321" type="curve" smooth="yes"/>
      <point x="336" y="225"/>
      <point x="236" y="161"/>
      <point x="128" y="161" type="curve"/>
      <point x="129" y="99" type="line"/>
      <point x="221" y="99"/>
      <point x="323" y="92"/>
      <point x="356" y="11" type="curve" smooth="yes"/>
      <point x="362" y="-3"/>
      <point x="365" y="-18"/>
      <point x="365" y="-32" type="curve" smooth="yes"/>
      <point x="365" y="-118"/>
      <point x="273" y="-186"/>
      <point x="186" y="-186" type="curve" smooth="yes"/>
      <point x="147" y="-186"/>
      <point x="108" y="-174"/>
      <point x="74" y="-149" type="curve"/>
      <point x="48" y="-208" type="line"/>
      <point x="91" y="-236"/>
      <point x="139" y="-250"/>
      <point x="188" y="-250" type="curve" smooth="yes"/>
      <point x="316" y="-250"/>
      <point x="436" y="-148"/>
      <point x="436" y="-30" type="curve" smooth="yes"/>
      <point x="436" y="68"/>
      <point x="364" y="120"/>
      <point x="291" y="142" type="curve"/>
      <point x="359" y="182"/>
      <point x="405" y="248"/>
      <point x="405" y="326" type="curve" smooth="yes"/>
      <point x="405" y="437"/>
      <point x="315" y="519"/>
      <point x="195" y="519" type="curve" smooth="yes"/>
      <point x="129" y="519"/>
      <point x="64" y="491"/>
      <point x="20" y="438" type="curve"/>
      <point x="47" y="392" type="line"/>
      <point x="80" y="434"/>
      <point x="131" y="458"/>
      <point x="183" y="458" type="curve" smooth="yes"/>
      <point x="270" y="458"/>
      <point x="336" y="399"/>
    </contour>
  </outline>
</glyph>
<glyph name="four" format="1">
  <advance width="614"/>
  <unicode hex="0034"/>
  <outline>
    <contour>
      <point x="87" y="112" type="line"/>
      <point x="372" y="450" type="line"/>
      <point x="371" y="112" type="line"/>
    </contour>
    <contour>
      <point x="17" y="112" type="line"/>
      <point x="17" y="50" type="line"/>
      <point x="371" y="50" type="line"/>
      <point x="370" y="-222" type="line"/>
      <point x="440" y="-222" type="line"/>
      <point x="441" y="50" type="line"/>
      <point x="598" y="50" type="line"/>
      <point x="598" y="112" type="line"/>
      <point x="441" y="112" type="line"/>
      <point x="443" y="527" type="line"/>
      <point x="372" y="527" type="line"/>
    </contour>
  </outline>
</glyph>
<glyph name="five" format="1">
  <advance width="516"/>
  <unicode hex="0035"/>
  <outline>
    <contour>
      <point x="209" y="305" type="curve" smooth="yes"/>
      <point x="193" y="305"/>
      <point x="177" y="304"/>
      <point x="160" y="301" type="curve"/>
      <point x="162" y="472" type="line"/>
      <point x="435" y="472" type="line"/>
      <point x="435" y="534" type="line"/>
      <point x="94" y="534" type="line"/>
      <point x="93" y="281" type="line"/>
      <point x="93" y="216" type="line"/>
      <point x="129" y="233"/>
      <point x="164" y="242"/>
      <point x="197" y="242" type="curve" smooth="yes"/>
      <point x="302" y="242"/>
      <point x="389" y="157"/>
      <point x="389" y="23" type="curve" smooth="yes"/>
      <point x="389" y="-94"/>
      <point x="311" y="-172"/>
      <point x="212" y="-172" type="curve" smooth="yes"/>
      <point x="177" y="-172"/>
      <point x="140" y="-162"/>
      <point x="103" y="-141" type="curve"/>
      <point x="72" y="-197" type="line"/>
      <point x="122" y="-226"/>
      <point x="173" y="-239"/>
      <point x="220" y="-239" type="curve" smooth="yes"/>
      <point x="353" y="-239"/>
      <point x="459" y="-135"/>
      <point x="459" y="18" type="curve" smooth="yes"/>
      <point x="459" y="193"/>
      <point x="347" y="305"/>
    </contour>
  </outline>
</glyph>
<glyph name="six" format="1">
  <advance width="594"/>
  <unicode hex="0036"/>
  <outline>
    <contour>
      <point x="510" y="727" type="line"/>
      <point x="391" y="689"/>
      <point x="282" y="621"/>
      <point x="195" y="530" type="curve" smooth="yes"/>
      <point x="121" y="452"/>
      <point x="64" y="356"/>
      <point x="64" y="252" type="curve" smooth="yes"/>
      <point x="64" y="109"/>
      <point x="166" y="-8"/>
      <point x="309" y="-8" type="curve" smooth="yes"/>
      <point x="426" y="-8"/>
      <point x="522" y="80"/>
      <point x="522" y="186" type="curve" smooth="yes"/>
      <point x="522" y="301"/>
      <point x="424" y="372"/>
      <point x="306" y="372" type="curve" smooth="yes"/>
      <point x="246" y="372"/>
      <point x="187" y="351"/>
      <point x="140" y="312" type="curve"/>
      <point x="157" y="385"/>
      <point x="204" y="452"/>
      <point x="262" y="507" type="curve" smooth="yes"/>
      <point x="339" y="581"/>
      <point x="432" y="636"/>
      <point x="534" y="667" type="curve"/>
    </contour>
    <contour>
      <point x="460" y="178" type="curve" smooth="yes"/>
      <point x="460" y="106"/>
      <point x="395" y="50"/>
      <point x="318" y="50" type="curve" smooth="yes"/>
      <point x="220" y="50"/>
      <point x="141" y="133"/>
      <point x="134" y="240" type="curve"/>
      <point x="174" y="287"/>
      <point x="233" y="315"/>
      <point x="295" y="315" type="curve" smooth="yes"/>
      <point x="385" y="315"/>
      <point x="460" y="259"/>
    </contour>
  </outline>
</glyph>
<glyph name="seven" format="1">
  <advance width="572"/>
  <unicode hex="0037"/>
  <outline>
    <contour>
      <point x="76" y="496" type="line"/>
      <point x="76" y="431" type="line"/>
      <point x="453" y="431" type="line"/>
      <point x="93" y="-222" type="line"/>
      <point x="163" y="-222" type="line"/>
      <point x="529" y="431" type="line"/>
      <point x="529" y="495" type="line"/>
    </contour>
  </outline>
</glyph>
<glyph name="eight" format="1">
  <advance width="582"/>
  <unicode hex="0038"/>
  <outline>
    <contour>
      <point x="291" y="610" type="curve" smooth="yes"/>
      <point x="357" y="610"/>
      <point x="421" y="573"/>
      <point x="421" y="505" type="curve" smooth="yes"/>
      <point x="421" y="447"/>
      <point x="365" y="403"/>
      <point x="305" y="371" type="curve"/>
      <point x="236" y="406"/>
      <point x="172" y="451"/>
      <point x="172" y="512" type="curve" smooth="yes"/>
      <point x="172" y="579"/>
      <point x="233" y="610"/>
    </contour>
    <contour>
      <point x="295" y="-24" type="curve" smooth="yes"/>
      <point x="407" y="-24"/>
      <point x="503" y="54"/>
      <point x="503" y="158" type="curve" smooth="yes"/>
      <point x="503" y="244"/>
      <point x="440" y="302"/>
      <point x="368" y="341" type="curve"/>
      <point x="435" y="379"/>
      <point x="489" y="436"/>
      <point x="489" y="509" type="curve" smooth="yes"/>
      <point x="489" y="606"/>
      <point x="398" y="674"/>
      <point x="297" y="674" type="curve" smooth="yes"/>
      <point x="200" y="674"/>
      <point x="108" y="611"/>
      <point x="108" y="512" type="curve" smooth="yes"/>
      <point x="108" y="436"/>
      <point x="168" y="378"/>
      <point x="239" y="337" type="curve"/>
      <point x="161" y="293"/>
      <point x="93" y="235"/>
      <point x="93" y="150" type="curve" smooth="yes"/>
      <point x="93" y="47"/>
      <point x="186" y="-24"/>
    </contour>
    <contour>
      <point x="307" y="38" type="curve" smooth="yes"/>
      <point x="305" y="38" type="line" smooth="yes"/>
      <point x="229" y="38"/>
      <point x="162" y="88"/>
      <point x="162" y="159" type="curve" smooth="yes"/>
      <point x="162" y="227"/>
      <point x="229" y="271"/>
      <point x="299" y="306" type="curve"/>
      <point x="371" y="270"/>
      <point x="442" y="223"/>
      <point x="442" y="152" type="curve" smooth="yes"/>
      <point x="442" y="79"/>
      <point x="375" y="38"/>
    </contour>
  </outline>
</glyph>
<glyph name="nine" format="1">
  <advance width="600"/>
  <unicode hex="0039"/>
  <outline>
    <contour>
      <point x="294" y="489" type="curve" smooth="yes"/>
      <point x="179" y="489"/>
      <point x="85" y="397"/>
      <point x="85" y="286" type="curve" smooth="yes"/>
      <point x="85" y="168"/>
      <point x="178" y="93"/>
      <point x="296" y="93" type="curve" smooth="yes"/>
      <point x="349" y="93"/>
      <point x="401" y="111"/>
      <point x="442" y="143" type="curve"/>
      <point x="423" y="91"/>
      <point x="389" y="43"/>
      <point x="350" y="2" type="curve" smooth="yes"/>
      <point x="278" y="-74"/>
      <point x="188" y="-130"/>
      <point x="89" y="-161" type="curve"/>
      <point x="113" y="-221" type="line"/>
      <point x="216" y="-189"/>
      <point x="311" y="-133"/>
      <point x="388" y="-57" type="curve" smooth="yes"/>
      <point x="468" y="21"/>
      <point x="528" y="121"/>
      <point x="528" y="232" type="curve" smooth="yes"/>
      <point x="528" y="365"/>
      <point x="437" y="489"/>
    </contour>
    <contour>
      <point x="147" y="297" type="curve" smooth="yes"/>
      <point x="147" y="372"/>
      <point x="208" y="434"/>
      <point x="288" y="434" type="curve" smooth="yes"/>
      <point x="386" y="434"/>
      <point x="460" y="343"/>
      <point x="459" y="233" type="curve"/>
      <point x="425" y="184"/>
      <point x="368" y="153"/>
      <point x="307" y="153" type="curve" smooth="yes"/>
      <point x="217" y="153"/>
      <point x="147" y="213"/>
    </contour>
  </outline>
</glyph>
<glyph name="colon" format="1">
  <advance width="361"/>
  <unicode hex="003A"/>
  <outline>
    <contour>
      <point x="150" y="137" type="line"/>
      <point x="150" y="0" type="line"/>
      <point x="221" y="0" type="line"/>
      <point x="221" y="137" type="line"/>
    </contour>
    <contour>
      <point x="150" y="461" type="line"/>
      <point x="150" y="324" type="line"/>
      <point x="221" y="324" type="line"/>
      <point x="221" y="461" type="line"/>
    </contour>
  </outline>
</glyph>
<glyph name="semicolon" format="1">
  <advance width="333"/>
  <unicode hex="003B"/>
  <outline>
    <contour>
      <point x="153" y="324" type="line"/>
      <point x="224" y="324" type="line"/>
      <point x="224" y="461" type="line"/>
      <point x="153" y="461" type="line"/>
    </contour>
    <contour>
      <point x="55" y="-90" type="line"/>
      <point x="120" y="-90" type="line"/>
      <point x="232" y="88" type="line"/>
      <point x="159" y="88" type="line"/>
    </contour>
  </outline>
</glyph>
<glyph name="less" format="1">
  <advance width="819"/>
  <unicode hex="003C"/>
  <outline>
    <contour>
      <point x="189" y="286" type="line"/>
      <point x="701" y="506" type="line"/>
      <point x="701" y="576" type="line"/>
      <point x="106" y="320" type="line"/>
      <point x="106" y="250" type="line"/>
      <point x="711" y="-1" type="line"/>
      <point x="711" y="70" type="line"/>
    </contour>
  </outline>
</glyph>
<glyph name="equal" format="1">
  <advance width="840"/>
  <unicode hex="003D"/>
  <outline>
    <contour>
      <point x="109" y="239" type="line"/>
      <point x="109" y="174" type="line"/>
      <point x="724" y="174" type="line"/>
      <point x="724" y="239" type="line"/>
    </contour>
    <contour>
      <point x="109" y="450" type="line"/>
      <point x="109" y="385" type="line"/>
      <point x="724" y="385" type="line"/>
      <point x="724" y="450" type="line"/>
    </contour>
  </outline>
</glyph>
<glyph name="greater" format="1">
  <advance width="819"/>
  <unicode hex="003E"/>
  <outline>
    <contour>
      <point x="123" y="-1" type="line"/>
      <point x="720" y="251" type="line"/>
      <point x="720" y="321" type="line"/>
      <point x="109" y="576" type="line"/>
      <point x="109" y="506" type="line"/>
      <point x="636" y="286" type="line"/>
      <point x="123" y="70" type="line"/>
    </contour>
  </outline>
</glyph>
<glyph name="question" format="1">
  <advance width="556"/>
  <unicode hex="003F"/>
  <outline>
    <contour>
      <point x="229" y="371" type="curve"/>
      <point x="229" y="307" type="line"/>
      <point x="228" y="226" type="line"/>
      <point x="298" y="226" type="line"/>
      <point x="299" y="301" type="line"/>
      <point x="397" y="310"/>
      <point x="484" y="390"/>
      <point x="484" y="509" type="curve" smooth="yes"/>
      <point x="484" y="630"/>
      <point x="383" y="728"/>
      <point x="264" y="728" type="curve" smooth="yes"/>
      <point x="241" y="728"/>
      <point x="216" y="724"/>
      <point x="192" y="716" type="curve"/>
      <point x="204" y="652" type="line"/>
      <point x="225" y="662"/>
      <point x="247" y="666"/>
      <point x="268" y="666" type="curve" smooth="yes"/>
      <point x="349" y="666"/>
      <point x="421" y="601"/>
      <point x="421" y="513" type="curve" smooth="yes"/>
      <point x="421" y="428"/>
      <point x="351" y="364"/>
      <point x="273" y="364" type="curve" smooth="yes"/>
      <point x="259" y="364"/>
      <point x="244" y="366"/>
    </contour>
    <contour>
      <point x="301" y="-10" type="line"/>
      <point x="301" y="127" type="line"/>
      <point x="224" y="127" type="line"/>
      <point x="224" y="-10" type="line"/>
    </contour>
  </outline>
</glyph>
<glyph name="at" format="1">
  <advance width="850"/>
  <unicode hex="0040"/>
  <outline>
    <contour>
      <point x="444" y="-96" type="curve" smooth="yes"/>
      <point x="268" y="-96"/>
      <point x="118" y="38"/>
      <point x="118" y="211" type="curve" smooth="yes"/>
      <point x="118" y="382"/>
      <point x="264" y="515"/>
      <point x="438" y="515" type="curve" smooth="yes"/>
      <point x="599" y="515"/>
      <point x="734" y="397"/>
      <point x="734" y="244" type="curve" smooth="yes"/>
      <point x="734" y="149"/>
      <point x="678" y="83"/>
      <point x="627" y="83" type="curve" smooth="yes"/>
      <point x="592" y="83"/>
      <point x="567" y="113"/>
      <point x="567" y="149" type="curve" smooth="yes"/>
      <point x="567" y="197"/>
      <point x="592" y="237"/>
      <point x="592" y="282" type="curve" smooth="yes"/>
      <point x="592" y="361"/>
      <point x="521" y="407"/>
      <point x="441" y="407" type="curve" smooth="yes"/>
      <point x="332" y="407"/>
      <point x="242" y="319"/>
      <point x="242" y="214" type="curve" smooth="yes"/>
      <point x="242" y="118"/>
      <point x="312" y="44"/>
      <point x="410" y="44" type="curve" smooth="yes"/>
      <point x="451" y="44"/>
      <point x="490" y="59"/>
      <point x="521" y="86" type="curve"/>
      <point x="538" y="54"/>
      <point x="578" y="29"/>
      <point x="622" y="29" type="curve" smooth="yes"/>
      <point x="709" y="29"/>
      <point x="793" y="123"/>
      <point x="793" y="249" type="curve" smooth="yes"/>
      <point x="793" y="430"/>
      <point x="635" y="569"/>
      <point x="439" y="569" type="curve" smooth="yes"/>
      <point x="233" y="569"/>
      <point x="60" y="412"/>
      <point x="60" y="208" type="curve" smooth="yes"/>
      <point x="60" y="4"/>
      <point x="235" y="-153"/>
      <point x="445" y="-153" type="curve" smooth="yes"/>
      <point x="543" y="-153"/>
      <point x="638" y="-116"/>
      <point x="711" y="-50" type="curve"/>
      <point x="671" y="-6" type="line"/>
      <point x="610" y="-63"/>
      <point x="529" y="-96"/>
    </contour>
    <contour>
      <point x="302" y="213" type="curve" smooth="yes"/>
      <point x="302" y="288"/>
      <point x="365" y="351"/>
      <point x="443" y="351" type="curve" smooth="yes"/>
      <point x="490" y="351"/>
      <point x="536" y="324"/>
      <point x="536" y="271" type="curve" smooth="yes"/>
      <point x="536" y="236"/>
      <point x="515" y="200"/>
      <point x="509" y="163" type="curve" smooth="yes"/>
      <point x="502" y="119"/>
      <point x="454" y="92"/>
      <point x="413" y="92" type="curve" smooth="yes"/>
      <point x="349" y="92"/>
      <point x="302" y="144"/>
    </contour>
  </outline>
</glyph>
<glyph name="A" format="1">
  <advance width="760"/>
  <unicode hex="0041"/>
  <outline>
    <contour>
      <point x="60" y="0" type="line"/>
      <point x="130" y="0" type="line"/>
      <point x="228" y="228" type="line"/>
      <point x="544" y="228" type="line"/>
      <point x="617" y="1" type="line"/>
      <point x="688" y="1" type="line"/>
      <point x="451" y="721" type="line"/>
      <point x="376" y="721" type="line"/>
    </contour>
    <contour>
      <point x="525" y="289" type="line"/>
      <point x="255" y="289" type="line"/>
      <point x="409" y="648" type="line"/>
    </contour>
  </outline>
</glyph>
<glyph name="B" format="1">
  <advance width="589"/>
  <unicode hex="0042"/>
  <outline>
    <contour>
      <point x="254" y="722" type="curve" smooth="yes"/>
      <point x="92" y="722" type="line"/>
      <point x="92" y="0" type="line"/>
      <point x="259" y="0" type="line" smooth="yes"/>
      <point x="405" y="0"/>
      <point x="521" y="76"/>
      <point x="521" y="213" type="curve" smooth="yes"/>
      <point x="521" y="306"/>
      <point x="471" y="370"/>
      <point x="392" y="403" type="curve"/>
      <point x="446" y="432"/>
      <point x="480" y="481"/>
      <point x="480" y="545" type="curve" smooth="yes"/>
      <point x="480" y="669"/>
      <point x="377" y="722"/>
    </contour>
    <contour>
      <point x="259" y="62" type="curve" smooth="yes"/>
      <point x="162" y="62" type="line"/>
      <point x="162" y="372" type="line"/>
      <point x="256" y="372" type="line" smooth="yes"/>
      <point x="366" y="372"/>
      <point x="451" y="316"/>
      <point x="451" y="216" type="curve" smooth="yes"/>
      <point x="451" y="114"/>
      <point x="365" y="62"/>
    </contour>
    <contour>
      <point x="162" y="434" type="line"/>
      <point x="162" y="661" type="line"/>
      <point x="254" y="661" type="line" smooth="yes"/>
      <point x="338" y="661"/>
      <point x="410" y="627"/>
      <point x="410" y="547" type="curve" smooth="yes"/>
      <point x="410" y="472"/>
      <point x="341" y="434"/>
      <point x="256" y="434" type="curve" smooth="yes"/>
    </contour>
  </outline>
</glyph>
<glyph name="C" format="1">
  <advance width="641"/>
  <unicode hex="0043"/>
  <outline>
    <contour>
      <point x="385" y="58" type="curve" smooth="yes"/>
      <point x="233" y="58"/>
      <point x="142" y="177"/>
      <point x="142" y="349" type="curve" smooth="yes"/>
      <point x="142" y="538"/>
      <point x="232" y="664"/>
      <point x="402" y="664" type="curve" smooth="yes"/>
      <point x="474" y="664"/>
      <point x="537" y="642"/>
      <point x="593" y="600" type="curve"/>
      <point x="621" y="660" type="line"/>
      <point x="555" y="705"/>
      <point x="485" y="731"/>
      <point x="391" y="731" type="curve" smooth="yes"/>
      <point x="192" y="731"/>
      <point x="71" y="579"/>
      <point x="71" y="351" type="curve" smooth="yes"/>
      <point x="71" y="137"/>
      <point x="183" y="-7"/>
      <point x="379" y="-7" type="curve" smooth="yes"/>
      <point x="476" y="-7"/>
      <point x="554" y="24"/>
      <point x="622" y="78" type="curve"/>
      <point x="592" y="139" type="line"/>
      <point x="538" y="87"/>
      <point x="473" y="58"/>
    </contour>
  </outline>
</glyph>
<glyph name="D" format="1">
  <advance width="700"/>
  <unicode hex="0044"/>
  <outline>
    <contour>
      <point x="279" y="722" type="curve" smooth="yes"/>
      <point x="76" y="722" type="line"/>
      <point x="76" y="0" type="line"/>
      <point x="146" y="0" type="line" smooth="yes"/>
      <point x="203" y="0"/>
      <point x="259" y="2"/>
      <point x="316" y="2" type="curve" smooth="yes"/>
      <point x="525" y="2"/>
      <point x="641" y="133"/>
      <point x="641" y="339" type="curve" smooth="yes"/>
      <point x="641" y="590"/>
      <point x="515" y="722"/>
    </contour>
    <contour>
      <point x="570" y="360" type="curve" smooth="yes"/>
      <point x="570" y="177"/>
      <point x="473" y="63"/>
      <point x="294" y="63" type="curve" smooth="yes"/>
      <point x="244" y="63"/>
      <point x="195" y="64"/>
      <point x="146" y="65" type="curve"/>
      <point x="146" y="658" type="line"/>
      <point x="289" y="658" type="line" smooth="yes"/>
      <point x="475" y="658"/>
      <point x="570" y="552"/>
    </contour>
  </outline>
</glyph>
<glyph name="E" format="1">
  <advance width="547"/>
  <unicode hex="0045"/>
  <outline>
    <contour>
      <point x="92" y="0" type="line"/>
      <point x="500" y="0" type="line"/>
      <point x="500" y="65" type="line"/>
      <point x="162" y="65" type="line"/>
      <point x="162" y="341" type="line"/>
      <point x="400" y="341" type="line"/>
      <point x="400" y="406" type="line"/>
      <point x="162" y="406" type="line"/>
      <point x="162" y="658" type="line"/>
      <point x="470" y="658" type="line"/>
      <point x="470" y="722" type="line"/>
      <point x="92" y="722" type="line"/>
    </contour>
  </outline>
</glyph>
<glyph name="F" format="1">
  <advance width="514"/>
  <unicode hex="0046"/>
  <outline>
    <contour>
      <point x="92" y="0" type="line"/>
      <point x="162" y="0" type="line"/>
      <point x="162" y="341" type="line"/>
      <point x="412" y="341" type="line"/>
      <point x="412" y="406" type="line"/>
      <point x="162" y="406" type="line"/>
      <point x="162" y="658" type="line"/>
      <point x="474" y="658" type="line"/>
      <point x="474" y="722" type="line"/>
      <point x="92" y="722" type="line"/>
    </contour>
  </outline>
</glyph>
<glyph name="G" format="1">
  <advance width="779"/>
  <unicode hex="0047"/>
  <outline>
    <contour>
      <point x="441" y="58" type="curve" smooth="yes"/>
      <point x="256" y="58"/>
      <point x="148" y="171"/>
      <point x="148" y="366" type="curve" smooth="yes"/>
      <point x="148" y="550"/>
      <point x="253" y="662"/>
      <point x="430" y="662" type="curve" smooth="yes"/>
      <point x="524" y="662"/>
      <point x="600" y="638"/>
      <point x="672" y="594" type="curve"/>
      <point x="684" y="657" type="line"/>
      <point x="604" y="705"/>
      <point x="521" y="731"/>
      <point x="414" y="731" type="curve" smooth="yes"/>
      <point x="204" y="731"/>
      <point x="77" y="591"/>
      <point x="77" y="366" type="curve" smooth="yes"/>
      <point x="77" y="132"/>
      <point x="202" y="-6"/>
      <point x="422" y="-6" type="curve" smooth="yes"/>
      <point x="530" y="-6"/>
      <point x="626" y="23"/>
      <point x="713" y="76" type="curve"/>
      <point x="713" y="338" type="line"/>
      <point x="483" y="338" type="line"/>
      <point x="483" y="276" type="line"/>
      <point x="649" y="276" type="line"/>
      <point x="650" y="105" type="line"/>
      <point x="585" y="75"/>
      <point x="519" y="58"/>
    </contour>
  </outline>
</glyph>
<glyph name="H" format="1">
  <advance width="778"/>
  <unicode hex="0048"/>
  <outline>
    <contour>
      <point x="618" y="722" type="line"/>
      <point x="618" y="396" type="line"/>
      <point x="163" y="396" type="line"/>
      <point x="163" y="722" type="line"/>
      <point x="93" y="722" type="line"/>
      <point x="92" y="0" type="line"/>
      <point x="162" y="0" type="line"/>
      <point x="162" y="329" type="line"/>
      <point x="618" y="329" type="line"/>
      <point x="618" y="0" type="line"/>
      <point x="689" y="0" type="line"/>
      <point x="689" y="722" type="line"/>
    </contour>
  </outline>
</glyph>
<glyph name="I" format="1">
  <advance width="252"/>
  <unicode hex="0049"/>
  <outline>
    <contour>
      <point x="92" y="0" type="line"/>
      <point x="162" y="0" type="line"/>
      <point x="163" y="722" type="line"/>
      <point x="93" y="722" type="line"/>
    </contour>
  </outline>
</glyph>
<glyph name="K" format="1">
  <advance width="665"/>
  <unicode hex="004B"/>
  <outline>
    <contour>
      <point x="92" y="0" type="line"/>
      <point x="162" y="0" type="line"/>
      <point x="162" y="342" type="line"/>
      <point x="541" y="0" type="line"/>
      <point x="617" y="0" type="line"/>
      <point x="213" y="383" type="line"/>
      <point x="585" y="722" type="line"/>
      <point x="509" y="722" type="line"/>
      <point x="162" y="406" type="line"/>
      <point x="162" y="722" type="line"/>
      <point x="92" y="722" type="line"/>
    </contour>
  </outline>
</glyph>
<glyph name="L" format="1">
  <advance width="568"/>
  <unicode hex="004C"/>
  <outline>
    <contour>
      <point x="92" y="0" type="line"/>
      <point x="538" y="0" type="line"/>
      <point x="538" y="65" type="line"/>
      <point x="162" y="65" type="line"/>
      <point x="162" y="722" type="line"/>
      <point x="92" y="722" type="line"/>
    </contour>
  </outline>
</glyph>
<glyph name="M" format="1">
  <advance width="877"/>
  <unicode hex="004D"/>
  <outline>
    <contour>
      <point x="736" y="722" type="line"/>
      <point x="667" y="722" type="line"/>
      <point x="666" y="722" type="line"/>
      <point x="415" y="76" type="line"/>
      <point x="183" y="722" type="line"/>
      <point x="112" y="722" type="line"/>
      <point x="58" y="0" type="line"/>
      <point x="129" y="0" type="line"/>
      <point x="170" y="569" type="line"/>
      <point x="385" y="0" type="line"/>
      <point x="454" y="0" type="line"/>
      <point x="680" y="577" type="line"/>
      <point x="731" y="0" type="line"/>
      <point x="802" y="0" type="line"/>
    </contour>
  </outline>
</glyph>
<glyph name="N" format="1">
  <advance width="768"/>
  <unicode hex="004E"/>
  <outline>
    <contour>
      <point x="92" y="0" type="line"/>
      <point x="162" y="0" type="line"/>
      <point x="162" y="621" type="line"/>
      <point x="619" y="0" type="line"/>
      <point x="689" y="0" type="line"/>
      <point x="689" y="722" type="line"/>
      <point x="619" y="722" type="line"/>
      <point x="619" y="101" type="line"/>
      <point x="162" y="722" type="line"/>
      <point x="92" y="722" type="line"/>
    </contour>
  </outline>
</glyph>
<glyph name="O" format="1">
  <advance width="760"/>
  <unicode hex="004F"/>
  <outline>
    <contour>
      <point x="380" y="662" type="curve" smooth="yes"/>
      <point x="533" y="662"/>
      <point x="629" y="526"/>
      <point x="629" y="362" type="curve" smooth="yes"/>
      <point x="629" y="198"/>
      <point x="542" y="60"/>
      <point x="382" y="60" type="curve" smooth="yes"/>
      <point x="232" y="60"/>
      <point x="133" y="195"/>
      <point x="133" y="360" type="curve" smooth="yes"/>
      <point x="133" y="526"/>
      <point x="225" y="662"/>
    </contour>
    <contour>
      <point x="383" y="728" type="curve" smooth="yes"/>
      <point x="191" y="728"/>
      <point x="64" y="565"/>
      <point x="64" y="359" type="curve" smooth="yes"/>
      <point x="64" y="158"/>
      <point x="188" y="-5"/>
      <point x="380" y="-6" type="curve" smooth="yes"/>
      <point x="573" y="-6"/>
      <point x="699" y="158"/>
      <point x="699" y="362" type="curve" smooth="yes"/>
      <point x="699" y="561"/>
      <point x="579" y="728"/>
    </contour>
  </outline>
</glyph>
<glyph name="P" format="1">
  <advance width="559"/>
  <unicode hex="0050"/>
  <outline>
    <contour>
      <point x="279" y="267" type="curve" smooth="yes"/>
      <point x="419" y="267"/>
      <point x="518" y="358"/>
      <point x="518" y="486" type="curve" smooth="yes"/>
      <point x="518" y="645"/>
      <point x="397" y="722"/>
      <point x="253" y="722" type="curve" smooth="yes"/>
      <point x="92" y="722" type="line"/>
      <point x="92" y="0" type="line"/>
      <point x="162" y="0" type="line"/>
      <point x="162" y="288" type="line"/>
      <point x="200" y="274"/>
      <point x="236" y="267"/>
    </contour>
    <contour>
      <point x="448" y="481" type="curve" smooth="yes"/>
      <point x="448" y="391"/>
      <point x="378" y="324"/>
      <point x="273" y="324" type="curve" smooth="yes"/>
      <point x="234" y="324"/>
      <point x="196" y="334"/>
      <point x="162" y="354" type="curve"/>
      <point x="162" y="658" type="line"/>
      <point x="253" y="658" type="line" smooth="yes"/>
      <point x="360" y="658"/>
      <point x="448" y="599"/>
    </contour>
  </outline>
</glyph>
<glyph name="Q" format="1">
  <advance width="765"/>
  <unicode hex="0051"/>
  <outline>
    <contour>
      <point x="437" y="-1" type="curve"/>
      <point x="598" y="28"/>
      <point x="710" y="183"/>
      <point x="710" y="359" type="curve" smooth="yes"/>
      <point x="710" y="558"/>
      <point x="570" y="727"/>
      <point x="384" y="728" type="curve" smooth="yes"/>
      <point x="196" y="728"/>
      <point x="58" y="558"/>
      <point x="58" y="362" type="curve" smooth="yes"/>
      <point x="58" y="169"/>
      <point x="188" y="6"/>
      <point x="365" y="-5" type="curve"/>
      <point x="446" y="-128"/>
      <point x="596" y="-231"/>
      <point x="777" y="-239" type="curve"/>
      <point x="777" y="-174" type="line"/>
      <point x="631" y="-168"/>
      <point x="509" y="-93"/>
    </contour>
    <contour>
      <point x="380" y="660" type="curve" smooth="yes"/>
      <point x="530" y="660"/>
      <point x="640" y="517"/>
      <point x="640" y="354" type="curve" smooth="yes"/>
      <point x="640" y="204"/>
      <point x="544" y="61"/>
      <point x="389" y="61" type="curve" smooth="yes"/>
      <point x="240" y="61"/>
      <point x="128" y="203"/>
      <point x="128" y="366" type="curve" smooth="yes"/>
      <point x="128" y="521"/>
      <point x="227" y="660"/>
    </contour>
  </outline>
</glyph>
<glyph name="R" format="1">
  <advance width="682"/>
  <unicode hex="0052"/>
  <outline>
    <contour>
      <point x="291" y="722" type="curve" smooth="yes"/>
      <point x="111" y="722" type="line"/>
      <point x="111" y="0" type="line"/>
      <point x="181" y="0" type="line"/>
      <point x="181" y="319" type="line"/>
      <point x="265" y="319" type="line" smooth="yes"/>
      <point x="289" y="319"/>
      <point x="313" y="320"/>
      <point x="335" y="323" type="curve"/>
      <point x="604" y="0" type="line"/>
      <point x="679" y="0" type="line"/>
      <point x="404" y="337" type="line"/>
      <point x="495" y="364"/>
      <point x="555" y="420"/>
      <point x="555" y="504" type="curve" smooth="yes"/>
      <point x="555" y="648"/>
      <point x="421" y="722"/>
    </contour>
    <contour>
      <point x="484" y="508" type="curve" smooth="yes"/>
      <point x="484" y="420"/>
      <point x="388" y="381"/>
      <point x="265" y="381" type="curve" smooth="yes"/>
      <point x="181" y="381" type="line"/>
      <point x="181" y="658" type="line"/>
      <point x="291" y="658" type="line" smooth="yes"/>
      <point x="384" y="658"/>
      <point x="484" y="611"/>
    </contour>
  </outline>
</glyph>
<glyph name="S" format="1">
  <advance width="581"/>
  <unicode hex="0053"/>
  <outline>
    <contour>
      <point x="456" y="617" type="curve"/>
      <point x="481" y="678" type="line"/>
      <point x="422" y="709"/>
      <point x="358" y="731"/>
      <point x="280" y="731" type="curve" smooth="yes"/>
      <point x="165" y="731"/>
      <point x="78" y="666"/>
      <point x="78" y="569" type="curve" smooth="yes"/>
      <point x="78" y="453"/>
      <point x="179" y="398"/>
      <point x="268" y="355" type="curve" smooth="yes"/>
      <point x="351" y="315"/>
      <point x="438" y="263"/>
      <point x="438" y="176" type="curve" smooth="yes"/>
      <point x="438" y="94"/>
      <point x="368" y="59"/>
      <point x="284" y="59" type="curve" smooth="yes"/>
      <point x="213" y="59"/>
      <point x="145" y="75"/>
      <point x="82" y="102" type="curve"/>
      <point x="58" y="39" type="line"/>
      <point x="126" y="11"/>
      <point x="198" y="-6"/>
      <point x="276" y="-6" type="curve" smooth="yes"/>
      <point x="407" y="-6"/>
      <point x="509" y="61"/>
      <point x="509" y="173" type="curve" smooth="yes"/>
      <point x="509" y="290"/>
      <point x="412" y="355"/>
      <point x="318" y="401" type="curve" smooth="yes"/>
      <point x="241" y="439"/>
      <point x="150" y="483"/>
      <point x="150" y="562" type="curve" smooth="yes"/>
      <point x="150" y="629"/>
      <point x="207" y="664"/>
      <point x="281" y="664" type="curve" smooth="yes"/>
      <point x="347" y="664"/>
      <point x="403" y="644"/>
    </contour>
  </outline>
</glyph>
<glyph name="T" format="1">
  <advance width="622"/>
  <unicode hex="0054"/>
  <outline>
    <contour>
      <point x="3" y="663" type="line"/>
      <point x="259" y="663" type="line"/>
      <point x="259" y="0" type="line"/>
      <point x="329" y="0" type="line"/>
      <point x="329" y="663" type="line"/>
      <point x="620" y="663" type="line"/>
      <point x="620" y="728" type="line"/>
      <point x="3" y="728" type="line"/>
    </contour>
  </outline>
</glyph>
<glyph name="U" format="1">
  <advance width="706"/>
  <unicode hex="0055"/>
  <outline>
    <contour>
      <point x="82" y="722" type="line"/>
      <point x="83" y="299" type="line" smooth="yes"/>
      <point x="83" y="117"/>
      <point x="183" y="-6"/>
      <point x="359" y="-6" type="curve" smooth="yes"/>
      <point x="537" y="-6"/>
      <point x="641" y="117"/>
      <point x="641" y="300" type="curve" smooth="yes"/>
      <point x="641" y="722" type="line"/>
      <point x="571" y="722" type="line"/>
      <point x="571" y="286" type="line" smooth="yes"/>
      <point x="571" y="153"/>
      <point x="500" y="61"/>
      <point x="372" y="61" type="curve" smooth="yes"/>
      <point x="230" y="61"/>
      <point x="152" y="164"/>
      <point x="152" y="312" type="curve" smooth="yes"/>
      <point x="153" y="722" type="line"/>
    </contour>
  </outline>
</glyph>
<glyph name="V" format="1">
  <advance width="662"/>
  <unicode hex="0056"/>
  <outline>
    <contour>
      <point x="639" y="722" type="line"/>
      <point x="568" y="722" type="line"/>
      <point x="346" y="91" type="line"/>
      <point x="129" y="722" type="line"/>
      <point x="59" y="722" type="line"/>
      <point x="314" y="0" type="line"/>
      <point x="385" y="0" type="line"/>
    </contour>
  </outline>
</glyph>
<glyph name="W" format="1">
  <advance width="967"/>
  <unicode hex="0057"/>
  <outline>
    <contour>
      <point x="914" y="722" type="line"/>
      <point x="844" y="722" type="line"/>
      <point x="675" y="104" type="line"/>
      <point x="534" y="722" type="line"/>
      <point x="466" y="722" type="line"/>
      <point x="316" y="100" type="line"/>
      <point x="129" y="722" type="line"/>
      <point x="58" y="722" type="line"/>
      <point x="292" y="0" type="line"/>
      <point x="359" y="0" type="line"/>
      <point x="508" y="613" type="line"/>
      <point x="647" y="0" type="line"/>
      <point x="714" y="0" type="line"/>
    </contour>
  </outline>
</glyph>
<glyph name="X" format="1">
  <advance width="692"/>
  <unicode hex="0058"/>
  <outline>
    <contour>
      <point x="83" y="722" type="line"/>
      <point x="314" y="368" type="line"/>
      <point x="41" y="0" type="line"/>
      <point x="114" y="0" type="line"/>
      <point x="349" y="315" type="line"/>
      <point x="555" y="0" type="line"/>
      <point x="627" y="0" type="line"/>
      <point x="385" y="370" type="line"/>
      <point x="649" y="722" type="line"/>
      <point x="576" y="722" type="line"/>
      <point x="348" y="427" type="line"/>
      <point x="155" y="722" type="line"/>
    </contour>
  </outline>
</glyph>
<glyph name="Y" format="1">
  <advance width="624"/>
  <unicode hex="0059"/>
  <outline>
    <contour>
      <point x="531" y="722" type="line"/>
      <point x="326" y="426" type="line"/>
      <point x="121" y="722" type="line"/>
      <point x="49" y="722" type="line"/>
      <point x="286" y="368" type="line"/>
      <point x="286" y="0" type="line"/>
      <point x="356" y="0" type="line"/>
      <point x="356" y="368" type="line"/>
      <point x="604" y="722" type="line"/>
    </contour>
  </outline>
</glyph>
<glyph name="Z" format="1">
  <advance width="669"/>
  <unicode hex="005A"/>
  <outline>
    <contour>
      <point x="106" y="641" type="line"/>
      <point x="530" y="641" type="line"/>
      <point x="40" y="74" type="line"/>
      <point x="40" y="7" type="line"/>
      <point x="631" y="7" type="line"/>
      <point x="631" y="74" type="line"/>
      <point x="117" y="74" type="line"/>
      <point x="606" y="641" type="line"/>
      <point x="606" y="709" type="line"/>
      <point x="106" y="708" type="line"/>
    </contour>
  </outline>
</glyph>
<glyph name="underscore" format="1">
  <advance width="714"/>
  <unicode hex="005F"/>
  <outline>
    <contour>
      <point x="25" y="-161" type="line"/>
      <point x="25" y="-232" type="line"/>
      <point x="692" y="-232" type="line"/>
      <point x="692" y="-161" type="line"/>
    </contour>
  </outline>
</glyph>
<glyph name="grave" format="1">
  <advance width="340"/>
  <unicode hex="0060"/>
  <outline>
    <contour>
      <point x="221" y="624" type="line"/>
      <point x="291" y="624" type="line"/>
      <point x="152" y="803" type="line"/>
      <point x="81" y="803" type="line"/>
    </contour>
  </outline>
</glyph>
<glyph name="a" format="1">
  <advance width="559"/>
  <unicode hex="0061"/>
  <outline>
    <contour>
      <point x="381" y="316" type="curve"/>
      <point x="230" y="315"/>
      <point x="93" y="304"/>
      <point x="62" y="167" type="curve"/>
      <point x="60" y="155"/>
      <point x="58" y="144"/>
      <point x="58" y="133" type="curve" smooth="yes"/>
      <point x="58" y="50"/>
      <point x="135" y="-18"/>
      <point x="235" y="-18" type="curve" smooth="yes"/>
      <point x="294" y="-18"/>
      <point x="343" y="10"/>
      <point x="380" y="59" type="curve"/>
      <point x="380" y="0" type="line"/>
      <point x="451" y="0" type="line"/>
      <point x="451" y="38"/>
      <point x="451" y="76"/>
      <point x="450" y="114" type="curve" smooth="yes"/>
      <point x="450" y="186"/>
      <point x="449" y="258"/>
      <point x="449" y="330" type="curve" smooth="yes"/>
      <point x="449" y="447"/>
      <point x="377" y="516"/>
      <point x="246" y="516" type="curve" smooth="yes"/>
      <point x="184" y="516"/>
      <point x="122" y="497"/>
      <point x="71" y="461" type="curve"/>
      <point x="108" y="412" type="line"/>
      <point x="143" y="440"/>
      <point x="187" y="455"/>
      <point x="231" y="455" type="curve" smooth="yes"/>
      <point x="328" y="455"/>
      <point x="379" y="400"/>
    </contour>
    <contour>
      <point x="126" y="141" type="curve" smooth="yes"/>
      <point x="126" y="152"/>
      <point x="128" y="164"/>
      <point x="132" y="176" type="curve" smooth="yes"/>
      <point x="157" y="249"/>
      <point x="218" y="262"/>
      <point x="292" y="262" type="curve" smooth="yes"/>
      <point x="320" y="262"/>
      <point x="350" y="260"/>
      <point x="381" y="259" type="curve"/>
      <point x="381" y="179" type="line"/>
      <point x="355" y="97"/>
      <point x="312" y="40"/>
      <point x="242" y="40" type="curve" smooth="yes"/>
      <point x="173" y="40"/>
      <point x="126" y="85"/>
    </contour>
  </outline>
</glyph>
<glyph name="b" format="1">
  <advance width="634"/>
  <unicode hex="0062"/>
  <outline>
    <contour>
      <point x="313" y="-3" type="curve" smooth="yes"/>
      <point x="461" y="-3"/>
      <point x="572" y="120"/>
      <point x="572" y="273" type="curve" smooth="yes"/>
      <point x="572" y="416"/>
      <point x="480" y="513"/>
      <point x="333" y="513" type="curve" smooth="yes"/>
      <point x="267" y="513"/>
      <point x="203" y="490"/>
      <point x="154" y="449" type="curve"/>
      <point x="154" y="833" type="line"/>
      <point x="83" y="833" type="line"/>
      <point x="83" y="0" type="line"/>
      <point x="154" y="0" type="line"/>
      <point x="154" y="56" type="line"/>
      <point x="197" y="19"/>
      <point x="250" y="-3"/>
    </contour>
    <contour>
      <point x="330" y="459" type="curve" smooth="yes"/>
      <point x="434" y="459"/>
      <point x="504" y="377"/>
      <point x="504" y="266" type="curve" smooth="yes"/>
      <point x="504" y="152"/>
      <point x="433" y="49"/>
      <point x="312" y="49" type="curve" smooth="yes"/>
      <point x="246" y="49"/>
      <point x="184" y="86"/>
      <point x="154" y="145" type="curve"/>
      <point x="154" y="360" type="line"/>
      <point x="192" y="418"/>
      <point x="253" y="459"/>
    </contour>
  </outline>
</glyph>
<glyph name="c" format="1">
  <advance width="504"/>
  <unicode hex="0063"/>
  <outline>
    <contour>
      <point x="134" y="252" type="curve" smooth="yes"/>
      <point x="134" y="366"/>
      <point x="199" y="453"/>
      <point x="320" y="453" type="curve" smooth="yes"/>
      <point x="365" y="453"/>
      <point x="410" y="438"/>
      <point x="447" y="411" type="curve"/>
      <point x="490" y="459" type="line"/>
      <point x="440" y="493"/>
      <point x="382" y="512"/>
      <point x="322" y="512" type="curve" smooth="yes"/>
      <point x="167" y="512"/>
      <point x="63" y="405"/>
      <point x="63" y="253" type="curve" smooth="yes"/>
      <point x="63" y="100"/>
      <point x="155" y="-7"/>
      <point x="309" y="-7" type="curve" smooth="yes"/>
      <point x="379" y="-7"/>
      <point x="447" y="17"/>
      <point x="501" y="64" type="curve"/>
      <point x="461" y="115" type="line"/>
      <point x="422" y="77"/>
      <point x="370" y="56"/>
      <point x="317" y="56" type="curve" smooth="yes"/>
      <point x="202" y="56"/>
      <point x="134" y="143"/>
    </contour>
  </outline>
</glyph>
<glyph name="d" format="1">
  <advance width="631"/>
  <unicode hex="0064"/>
  <outline>
    <contour>
      <point x="331" y="460" type="curve" smooth="yes"/>
      <point x="385" y="460"/>
      <point x="437" y="439"/>
      <point x="477" y="401" type="curve"/>
      <point x="477" y="299" type="line"/>
      <point x="477" y="173" type="line"/>
      <point x="456" y="101"/>
      <point x="393" y="43"/>
      <point x="303" y="43" type="curve" smooth="yes"/>
      <point x="204" y="43"/>
      <point x="135" y="129"/>
      <point x="135" y="243" type="curve" smooth="yes"/>
      <point x="135" y="366"/>
      <point x="203" y="460"/>
    </contour>
    <contour>
      <point x="326" y="513" type="curve" smooth="yes"/>
      <point x="173" y="513"/>
      <point x="67" y="400"/>
      <point x="67" y="240" type="curve" smooth="yes"/>
      <point x="67" y="97"/>
      <point x="154" y="-6"/>
      <point x="290" y="-6" type="curve" smooth="yes"/>
      <point x="364" y="-6"/>
      <point x="429" y="25"/>
      <point x="476" y="75" type="curve"/>
      <point x="476" y="0" type="line"/>
      <point x="546" y="0" type="line"/>
      <point x="546" y="35"/>
      <point x="547" y="69"/>
      <point x="547" y="104" type="curve" smooth="yes"/>
      <point x="547" y="205"/>
      <point x="548" y="305"/>
      <point x="548" y="406" type="curve" smooth="yes"/>
      <point x="548" y="548"/>
      <point x="547" y="691"/>
      <point x="546" y="833" type="curve"/>
      <point x="475" y="833" type="line"/>
      <point x="476" y="713"/>
      <point x="477" y="594"/>
      <point x="477" y="474" type="curve"/>
      <point x="432" y="499"/>
      <point x="386" y="513"/>
    </contour>
  </outline>
</glyph>
<glyph name="e" format="1">
  <advance width="568"/>
  <unicode hex="0065"/>
  <outline>
    <contour>
      <point x="307" y="52" type="curve" smooth="yes"/>
      <point x="200" y="52"/>
      <point x="135" y="129"/>
      <point x="128" y="244" type="curve"/>
      <point x="501" y="244" type="line"/>
      <point x="503" y="258"/>
      <point x="504" y="274"/>
      <point x="504" y="288" type="curve" smooth="yes"/>
      <point x="504" y="425"/>
      <point x="422" y="515"/>
      <point x="288" y="515" type="curve" smooth="yes"/>
      <point x="152" y="515"/>
      <point x="59" y="404"/>
      <point x="59" y="253" type="curve" smooth="yes"/>
      <point x="59" y="97"/>
      <point x="145" y="-7"/>
      <point x="300" y="-7" type="curve" smooth="yes"/>
      <point x="373" y="-7"/>
      <point x="444" y="18"/>
      <point x="502" y="66" type="curve"/>
      <point x="463" y="115" type="line"/>
      <point x="422" y="74"/>
      <point x="369" y="52"/>
    </contour>
    <contour>
      <point x="434" y="297" type="curve"/>
      <point x="129" y="297" type="line"/>
      <point x="140" y="389"/>
      <point x="198" y="456"/>
      <point x="288" y="456" type="curve" smooth="yes"/>
      <point x="376" y="456"/>
      <point x="429" y="390"/>
    </contour>
  </outline>
</glyph>
<glyph name="f" format="1">
  <advance width="471"/>
  <unicode hex="0066"/>
  <outline>
    <contour>
      <point x="254" y="493" type="line"/>
      <point x="254" y="663" type="line" smooth="yes"/>
      <point x="254" y="737"/>
      <point x="314" y="788"/>
      <point x="379" y="788" type="curve" smooth="yes"/>
      <point x="403" y="788"/>
      <point x="428" y="781"/>
      <point x="450" y="765" type="curve"/>
      <point x="474" y="822" type="line"/>
      <point x="442" y="842"/>
      <point x="407" y="852"/>
      <point x="373" y="852" type="curve" smooth="yes"/>
      <point x="275" y="852"/>
      <point x="184" y="773"/>
      <point x="184" y="663" type="curve" smooth="yes"/>
      <point x="184" y="493" type="line"/>
      <point x="29" y="493" type="line"/>
      <point x="29" y="431" type="line"/>
      <point x="184" y="431" type="line"/>
      <point x="184" y="0" type="line"/>
      <point x="254" y="0" type="line"/>
      <point x="254" y="431" type="line"/>
      <point x="456" y="431" type="line"/>
      <point x="456" y="493" type="line"/>
    </contour>
  </outline>
</glyph>
<glyph name="g" format="1">
  <advance width="589"/>
  <unicode hex="0067"/>
  <outline>
    <contour>
      <point x="474" y="-111" type="curve" smooth="yes"/>
      <point x="474" y="-188"/>
      <point x="374" y="-236"/>
      <point x="270" y="-236" type="curve" smooth="yes"/>
      <point x="173" y="-236"/>
      <point x="99" y="-196"/>
      <point x="99" y="-110" type="curve" smooth="yes"/>
      <point x="99" y="-63"/>
      <point x="121" y="-24"/>
      <point x="154" y="1" type="curve"/>
      <point x="183" y="-6"/>
      <point x="218" y="-7"/>
      <point x="256" y="-7" type="curve" smooth="yes"/>
      <point x="326" y="-7" type="line" smooth="yes"/>
      <point x="396" y="-7"/>
      <point x="474" y="-34"/>
    </contour>
    <contour>
      <point x="540" y="-100" type="curve" smooth="yes"/>
      <point x="540" y="6"/>
      <point x="443" y="53"/>
      <point x="351" y="53" type="curve" smooth="yes"/>
      <point x="305" y="53"/>
      <point x="260" y="48"/>
      <point x="223" y="48" type="curve" smooth="yes"/>
      <point x="168" y="48"/>
      <point x="130" y="59"/>
      <point x="130" y="113" type="curve" smooth="yes"/>
      <point x="130" y="141"/>
      <point x="138" y="161"/>
      <point x="155" y="177" type="curve"/>
      <point x="188" y="155"/>
      <point x="229" y="143"/>
      <point x="272" y="143" type="curve" smooth="yes"/>
      <point x="385" y="143"/>
      <point x="479" y="228"/>
      <point x="479" y="333" type="curve" smooth="yes"/>
      <point x="479" y="372"/>
      <point x="468" y="401"/>
      <point x="451" y="427" type="curve"/>
      <point x="575" y="423" type="line"/>
      <point x="575" y="479" type="line"/>
      <point x="405" y="474" type="line"/>
      <point x="370" y="499"/>
      <point x="328" y="512"/>
      <point x="279" y="512" type="curve" smooth="yes"/>
      <point x="167" y="512"/>
      <point x="72" y="432"/>
      <point x="72" y="325" type="curve" smooth="yes"/>
      <point x="72" y="279"/>
      <point x="90" y="240"/>
      <point x="118" y="209" type="curve"/>
      <point x="89" y="185"/>
      <point x="71" y="149"/>
      <point x="71" y="110" type="curve" smooth="yes"/>
      <point x="71" y="66"/>
      <point x="87" y="36"/>
      <point x="111" y="19" type="curve"/>
      <point x="67" y="-17"/>
      <point x="40" y="-70"/>
      <point x="40" y="-129" type="curve" smooth="yes"/>
      <point x="40" y="-244"/>
      <point x="130" y="-299"/>
      <point x="250" y="-299" type="curve" smooth="yes"/>
      <point x="405" y="-299"/>
      <point x="540" y="-213"/>
    </contour>
    <contour>
      <point x="279" y="453" type="curve" smooth="yes"/>
      <point x="352" y="453"/>
      <point x="414" y="400"/>
      <point x="414" y="328" type="curve" smooth="yes"/>
      <point x="414" y="258"/>
      <point x="352" y="204"/>
      <point x="279" y="204" type="curve" smooth="yes"/>
      <point x="205" y="204"/>
      <point x="142" y="257"/>
      <point x="142" y="329" type="curve" smooth="yes"/>
      <point x="142" y="399"/>
      <point x="203" y="453"/>
    </contour>
  </outline>
</glyph>
<glyph name="h" format="1">
  <advance width="585"/>
  <unicode hex="0068"/>
  <outline>
    <contour>
      <point x="434" y="334" type="curve" smooth="yes"/>
      <point x="434" y="223"/>
      <point x="435" y="111"/>
      <point x="435" y="0" type="curve"/>
      <point x="505" y="0" type="line"/>
      <point x="505" y="113"/>
      <point x="504" y="227"/>
      <point x="504" y="340" type="curve" smooth="yes"/>
      <point x="504" y="441"/>
      <point x="429" y="518"/>
      <point x="313" y="518" type="curve" smooth="yes"/>
      <point x="254" y="518"/>
      <point x="197" y="495"/>
      <point x="153" y="456" type="curve"/>
      <point x="153" y="691" type="line"/>
      <point x="153" y="834" type="line"/>
      <point x="83" y="834" type="line"/>
      <point x="83" y="0" type="line"/>
      <point x="154" y="0" type="line"/>
      <point x="153" y="121"/>
      <point x="153" y="242"/>
      <point x="153" y="364" type="curve"/>
      <point x="187" y="421"/>
      <point x="243" y="463"/>
      <point x="307" y="463" type="curve" smooth="yes"/>
      <point x="383" y="463"/>
      <point x="434" y="407"/>
    </contour>
  </outline>
</glyph>
<glyph name="i" format="1">
  <advance width="259"/>
  <unicode hex="0069"/>
  <outline>
    <contour>
      <point x="93" y="651" type="line"/>
      <point x="166" y="651" type="line"/>
      <point x="166" y="768" type="line"/>
      <point x="93" y="768" type="line"/>
    </contour>
    <contour>
      <point x="95" y="0" type="line"/>
      <point x="165" y="0" type="line"/>
      <point x="165" y="507" type="line"/>
      <point x="94" y="507" type="line"/>
    </contour>
  </outline>
</glyph>
<glyph name="j" format="1">
  <advance width="361"/>
  <unicode hex="006A"/>
  <outline>
    <contour>
      <point x="166" y="649" type="line"/>
      <point x="239" y="649" type="line"/>
      <point x="239" y="771" type="line"/>
      <point x="166" y="771" type="line"/>
    </contour>
    <contour>
      <point x="34" y="-228" type="curve"/>
      <point x="34" y="-292" type="line"/>
      <point x="45" y="-294"/>
      <point x="55" y="-295"/>
      <point x="66" y="-295" type="curve" smooth="yes"/>
      <point x="159" y="-295"/>
      <point x="237" y="-220"/>
      <point x="237" y="-123" type="curve" smooth="yes"/>
      <point x="237" y="508" type="line"/>
      <point x="167" y="508" type="line"/>
      <point x="167" y="-123" type="line" smooth="yes"/>
      <point x="167" y="-184"/>
      <point x="117" y="-231"/>
      <point x="59" y="-231" type="curve" smooth="yes"/>
      <point x="51" y="-231"/>
      <point x="42" y="-230"/>
    </contour>
  </outline>
</glyph>
<glyph name="k" format="1">
  <advance width="612"/>
  <unicode hex="006B"/>
  <outline>
    <contour>
      <point x="114" y="0" type="line"/>
      <point x="184" y="0" type="line"/>
      <point x="184" y="245" type="line"/>
      <point x="484" y="0" type="line"/>
      <point x="571" y="0" type="line"/>
      <point x="243" y="275" type="line"/>
      <point x="547" y="507" type="line"/>
      <point x="458" y="507" type="line"/>
      <point x="184" y="300" type="line"/>
      <point x="184" y="803" type="line"/>
      <point x="114" y="803" type="line"/>
    </contour>
  </outline>
</glyph>
<glyph name="l" format="1">
  <advance width="280"/>
  <unicode hex="006C"/>
  <outline>
    <contour>
      <point x="105" y="1" type="line"/>
      <point x="176" y="1" type="line"/>
      <point x="175" y="833" type="line"/>
      <point x="105" y="833" type="line"/>
    </contour>
  </outline>
</glyph>
<glyph name="m" format="1">
  <advance width="939"/>
  <unicode hex="006D"/>
  <outline>
    <contour>
      <point x="437" y="351" type="curve" smooth="yes"/>
      <point x="437" y="234"/>
      <point x="437" y="118"/>
      <point x="436" y="1" type="curve"/>
      <point x="506" y="1" type="line"/>
      <point x="507" y="117"/>
      <point x="508" y="233"/>
      <point x="508" y="349" type="curve" smooth="yes"/>
      <point x="508" y="359" type="line"/>
      <point x="536" y="422"/>
      <point x="586" y="465"/>
      <point x="652" y="465" type="curve" smooth="yes"/>
      <point x="735" y="465"/>
      <point x="781" y="412"/>
      <point x="781" y="335" type="curve" smooth="yes"/>
      <point x="781" y="1" type="line"/>
      <point x="851" y="1" type="line"/>
      <point x="851" y="338" type="line" smooth="yes"/>
      <point x="851" y="445"/>
      <point x="779" y="523"/>
      <point x="657" y="523" type="curve" smooth="yes"/>
      <point x="589" y="523"/>
      <point x="529" y="490"/>
      <point x="487" y="434" type="curve"/>
      <point x="459" y="484"/>
      <point x="396" y="521"/>
      <point x="317" y="521" type="curve" smooth="yes"/>
      <point x="258" y="521"/>
      <point x="208" y="495"/>
      <point x="163" y="453" type="curve"/>
      <point x="163" y="507" type="line"/>
      <point x="92" y="507" type="line"/>
      <point x="92" y="409" type="line" smooth="yes"/>
      <point x="92" y="258"/>
      <point x="92" y="151"/>
      <point x="91" y="0" type="curve"/>
      <point x="161" y="0" type="line"/>
      <point x="162" y="138"/>
      <point x="163" y="239"/>
      <point x="163" y="371" type="curve"/>
      <point x="206" y="427"/>
      <point x="249" y="466"/>
      <point x="314" y="466" type="curve" smooth="yes"/>
      <point x="390" y="466"/>
      <point x="437" y="420"/>
    </contour>
  </outline>
</glyph>
<glyph name="n" format="1">
  <advance width="596"/>
  <unicode hex="006E"/>
  <outline>
    <contour>
      <point x="337" y="516" type="curve" smooth="yes"/>
      <point x="269" y="516"/>
      <point x="205" y="487"/>
      <point x="156" y="440" type="curve"/>
      <point x="156" y="507" type="line"/>
      <point x="85" y="507" type="line"/>
      <point x="85" y="409" type="line" smooth="yes"/>
      <point x="85" y="273"/>
      <point x="85" y="136"/>
      <point x="83" y="0" type="curve"/>
      <point x="154" y="0" type="line"/>
      <point x="155" y="113"/>
      <point x="155" y="227"/>
      <point x="156" y="341" type="curve"/>
      <point x="194" y="404"/>
      <point x="255" y="453"/>
      <point x="333" y="453" type="curve" smooth="yes"/>
      <point x="402" y="453"/>
      <point x="447" y="407"/>
      <point x="447" y="335" type="curve" smooth="yes"/>
      <point x="447" y="0" type="line"/>
      <point x="517" y="0" type="line"/>
      <point x="517" y="340" type="line" smooth="yes"/>
      <point x="517" y="447"/>
      <point x="454" y="516"/>
    </contour>
  </outline>
</glyph>
<glyph name="o" format="1">
  <advance width="646"/>
  <unicode hex="006F"/>
  <outline>
    <contour>
      <point x="324" y="451" type="curve" smooth="yes"/>
      <point x="433" y="451"/>
      <point x="503" y="368"/>
      <point x="503" y="253" type="curve" smooth="yes"/>
      <point x="503" y="134"/>
      <point x="437" y="54"/>
      <point x="319" y="54" type="curve" smooth="yes"/>
      <point x="208" y="54"/>
      <point x="138" y="137"/>
      <point x="138" y="257" type="curve" smooth="yes"/>
      <point x="138" y="371"/>
      <point x="204" y="451"/>
    </contour>
    <contour>
      <point x="322" y="-7" type="curve" smooth="yes"/>
      <point x="472" y="-7"/>
      <point x="572" y="100"/>
      <point x="571" y="259" type="curve" smooth="yes"/>
      <point x="569" y="410"/>
      <point x="475" y="512"/>
      <point x="319" y="512" type="curve" smooth="yes"/>
      <point x="168" y="512"/>
      <point x="69" y="407"/>
      <point x="69" y="255" type="curve" smooth="yes"/>
      <point x="69" y="97"/>
      <point x="162" y="-7"/>
    </contour>
  </outline>
</glyph>
<glyph name="p" format="1">
  <advance width="641"/>
  <unicode hex="0070"/>
  <outline>
    <contour>
      <point x="578" y="281" type="curve" smooth="yes"/>
      <point x="578" y="409"/>
      <point x="485" y="513"/>
      <point x="343" y="513" type="curve" smooth="yes"/>
      <point x="272" y="513"/>
      <point x="206" y="484"/>
      <point x="157" y="435" type="curve"/>
      <point x="157" y="459"/>
      <point x="157" y="483"/>
      <point x="156" y="507" type="curve"/>
      <point x="86" y="507" type="line"/>
      <point x="86" y="461"/>
      <point x="87" y="415"/>
      <point x="87" y="369" type="curve" smooth="yes"/>
      <point x="88" y="285"/>
      <point x="88" y="202"/>
      <point x="88" y="118" type="curve" smooth="yes"/>
      <point x="88" y="-18"/>
      <point x="87" y="-154"/>
      <point x="86" y="-290" type="curve"/>
      <point x="156" y="-290" type="line"/>
      <point x="157" y="-184"/>
      <point x="158" y="-78"/>
      <point x="158" y="28" type="curve"/>
      <point x="199" y="6"/>
      <point x="245" y="-6"/>
      <point x="292" y="-6" type="curve" smooth="yes"/>
      <point x="447" y="-6"/>
      <point x="578" y="120"/>
    </contour>
    <contour>
      <point x="340" y="464" type="curve" smooth="yes"/>
      <point x="438" y="464"/>
      <point x="509" y="383"/>
      <point x="509" y="282" type="curve" smooth="yes"/>
      <point x="509" y="156"/>
      <point x="417" y="53"/>
      <point x="292" y="53" type="curve" smooth="yes"/>
      <point x="244" y="53"/>
      <point x="196" y="70"/>
      <point x="159" y="101" type="curve"/>
      <point x="159" y="128" type="line" smooth="yes"/>
      <point x="159" y="196"/>
      <point x="158" y="264"/>
      <point x="158" y="332" type="curve"/>
      <point x="192" y="405"/>
      <point x="251" y="464"/>
    </contour>
  </outline>
</glyph>
<glyph name="q" format="1">
  <advance width="670"/>
  <unicode hex="0071"/>
  <outline>
    <contour>
      <point x="331" y="510" type="curve" smooth="yes"/>
      <point x="186" y="510"/>
      <point x="67" y="396"/>
      <point x="67" y="254" type="curve" smooth="yes"/>
      <point x="67" y="99"/>
      <point x="200" y="-11"/>
      <point x="363" y="-11" type="curve" smooth="yes"/>
      <point x="407" y="-11"/>
      <point x="451" y="-2"/>
      <point x="492" y="15" type="curve"/>
      <point x="492" y="-290" type="line"/>
      <point x="562" y="-290" type="line"/>
      <point x="562" y="507" type="line"/>
      <point x="492" y="507" type="line"/>
      <point x="492" y="453" type="line"/>
      <point x="448" y="489"/>
      <point x="399" y="510"/>
    </contour>
    <contour>
      <point x="136" y="258" type="curve" smooth="yes"/>
      <point x="136" y="364"/>
      <point x="224" y="456"/>
      <point x="338" y="456" type="curve" smooth="yes"/>
      <point x="398" y="456"/>
      <point x="454" y="430"/>
      <point x="492" y="384" type="curve"/>
      <point x="492" y="80" type="line"/>
      <point x="454" y="58"/>
      <point x="412" y="46"/>
      <point x="369" y="46" type="curve" smooth="yes"/>
      <point x="243" y="46"/>
      <point x="136" y="135"/>
    </contour>
  </outline>
</glyph>
<glyph name="r" format="1">
  <advance width="442"/>
  <unicode hex="0072"/>
  <outline>
    <contour>
      <point x="385" y="448" type="curve" smooth="yes"/>
      <point x="395" y="448"/>
      <point x="406" y="447"/>
      <point x="416" y="446" type="curve"/>
      <point x="428" y="512" type="line"/>
      <point x="416" y="513"/>
      <point x="405" y="514"/>
      <point x="393" y="514" type="curve" smooth="yes"/>
      <point x="296" y="514"/>
      <point x="220" y="478"/>
      <point x="163" y="431" type="curve"/>
      <point x="163" y="507" type="line"/>
      <point x="93" y="507" type="line"/>
      <point x="93" y="0" type="line"/>
      <point x="163" y="0" type="line"/>
      <point x="163" y="342" type="line"/>
      <point x="213" y="404"/>
      <point x="284" y="448"/>
    </contour>
  </outline>
</glyph>
<glyph name="s" format="1">
  <advance width="487"/>
  <unicode hex="0073"/>
  <outline>
    <contour>
      <point x="21" y="50" type="line"/>
      <point x="82" y="12"/>
      <point x="143" y="-6"/>
      <point x="214" y="-6" type="curve" smooth="yes"/>
      <point x="329" y="-6"/>
      <point x="434" y="40"/>
      <point x="434" y="135" type="curve" smooth="yes"/>
      <point x="434" y="222"/>
      <point x="356" y="256"/>
      <point x="277" y="279" type="curve" smooth="yes"/>
      <point x="214" y="297"/>
      <point x="139" y="305"/>
      <point x="139" y="374" type="curve" smooth="yes"/>
      <point x="139" y="424"/>
      <point x="190" y="453"/>
      <point x="249" y="453" type="curve" smooth="yes"/>
      <point x="301" y="453"/>
      <point x="346" y="440"/>
      <point x="389" y="412" type="curve"/>
      <point x="417" y="467" type="line"/>
      <point x="367" y="497"/>
      <point x="318" y="513"/>
      <point x="253" y="513" type="curve" smooth="yes"/>
      <point x="154" y="513"/>
      <point x="73" y="457"/>
      <point x="73" y="374" type="curve" smooth="yes"/>
      <point x="73" y="281"/>
      <point x="152" y="248"/>
      <point x="232" y="225" type="curve" smooth="yes"/>
      <point x="295" y="207"/>
      <point x="365" y="193"/>
      <point x="365" y="134" type="curve" smooth="yes"/>
      <point x="365" y="69"/>
      <point x="295" y="56"/>
      <point x="226" y="56" type="curve" smooth="yes"/>
      <point x="162" y="56"/>
      <point x="108" y="72"/>
      <point x="53" y="104" type="curve"/>
    </contour>
  </outline>
</glyph>
<glyph name="t" format="1">
  <advance width="440"/>
  <unicode hex="0074"/>
  <outline>
    <contour>
      <point x="318" y="-9" type="curve" smooth="yes"/>
      <point x="352" y="-9"/>
      <point x="386" y="1"/>
      <point x="414" y="20" type="curve"/>
      <point x="392" y="74" type="line"/>
      <point x="376" y="60"/>
      <point x="354" y="52"/>
      <point x="332" y="52" type="curve" smooth="yes"/>
      <point x="262" y="52"/>
      <point x="226" y="119"/>
      <point x="226" y="180" type="curve" smooth="yes"/>
      <point x="226" y="434" type="line"/>
      <point x="423" y="434" type="line"/>
      <point x="423" y="496" type="line"/>
      <point x="226" y="496" type="line"/>
      <point x="226" y="541"/>
      <point x="225" y="586"/>
      <point x="225" y="631" type="curve"/>
      <point x="157" y="590" type="line"/>
      <point x="157" y="495" type="line"/>
      <point x="26" y="495" type="line"/>
      <point x="26" y="433" type="line"/>
      <point x="157" y="433" type="line"/>
      <point x="157" y="139" type="line" smooth="yes"/>
      <point x="157" y="59"/>
      <point x="225" y="-9"/>
    </contour>
  </outline>
</glyph>
<glyph name="u" format="1">
  <advance width="596"/>
  <unicode hex="0075"/>
  <outline>
    <contour>
      <point x="158" y="177" type="curve" smooth="yes"/>
      <point x="159" y="507" type="line"/>
      <point x="88" y="507" type="line"/>
      <point x="89" y="155" type="line" smooth="yes"/>
      <point x="89" y="66"/>
      <point x="162" y="-10"/>
      <point x="263" y="-10" type="curve" smooth="yes"/>
      <point x="332" y="-10"/>
      <point x="395" y="29"/>
      <point x="444" y="85" type="curve"/>
      <point x="444" y="0" type="line"/>
      <point x="515" y="0" type="line"/>
      <point x="515" y="507" type="line"/>
      <point x="444" y="507" type="line"/>
      <point x="444" y="184" type="line"/>
      <point x="407" y="114"/>
      <point x="354" y="51"/>
      <point x="280" y="51" type="curve" smooth="yes"/>
      <point x="209" y="51"/>
      <point x="158" y="110"/>
    </contour>
  </outline>
</glyph>
<glyph name="v" format="1">
  <advance width="568"/>
  <unicode hex="0076"/>
  <outline>
    <contour>
      <point x="39" y="507" type="line"/>
      <point x="244" y="0" type="line"/>
      <point x="312" y="0" type="line"/>
      <point x="526" y="507" type="line"/>
      <point x="456" y="507" type="line"/>
      <point x="274" y="72" type="line"/>
      <point x="109" y="507" type="line"/>
    </contour>
  </outline>
</glyph>
<glyph name="w" format="1">
  <advance width="932"/>
  <unicode hex="0077"/>
  <outline>
    <contour>
      <point x="57" y="507" type="line"/>
      <point x="254" y="0" type="line"/>
      <point x="324" y="0" type="line"/>
      <point x="463" y="406" type="line"/>
      <point x="596" y="0" type="line"/>
      <point x="666" y="0" type="line"/>
      <point x="891" y="507" type="line"/>
      <point x="820" y="507" type="line"/>
      <point x="627" y="71" type="line"/>
      <point x="498" y="507" type="line"/>
      <point x="430" y="507" type="line"/>
      <point x="279" y="72" type="line"/>
      <point x="128" y="507" type="line"/>
    </contour>
  </outline>
</glyph>
<glyph name="x" format="1">
  <advance width="574"/>
  <unicode hex="0078"/>
  <outline>
    <contour>
      <point x="91" y="507" type="line"/>
      <point x="259" y="264" type="line"/>
      <point x="51" y="0" type="line"/>
      <point x="121" y="0" type="line"/>
      <point x="295" y="212" type="line"/>
      <point x="441" y="0" type="line"/>
      <point x="511" y="0" type="line"/>
      <point x="328" y="264" type="line"/>
      <point x="515" y="507" type="line"/>
      <point x="445" y="507" type="line"/>
      <point x="292" y="317" type="line"/>
      <point x="161" y="507" type="line"/>
    </contour>
  </outline>
</glyph>
<glyph name="y" format="1">
  <advance width="578"/>
  <unicode hex="0079"/>
  <outline>
    <contour>
      <point x="47" y="507" type="line"/>
      <point x="248" y="77" type="line"/>
      <point x="65" y="-290" type="line"/>
      <point x="138" y="-290" type="line"/>
      <point x="536" y="507" type="line"/>
      <point x="463" y="507" type="line"/>
      <point x="282" y="144" type="line"/>
      <point x="118" y="507" type="line"/>
    </contour>
  </outline>
</glyph>
<glyph name="z" format="1">
  <advance width="419"/>
  <unicode hex="007A"/>
  <outline>
    <contour>
      <point x="36" y="429" type="line"/>
      <point x="338" y="430" type="line"/>
      <point x="-8" y="65" type="line"/>
      <point x="-8" y="0" type="line"/>
      <point x="424" y="0" type="line"/>
      <point x="424" y="65" type="line"/>
      <point x="68" y="65" type="line"/>
      <point x="414" y="430" type="line"/>
      <point x="414" y="494" type="line"/>
      <point x="36" y="494" type="line"/>
    </contour>
  </outline>
</glyph>
<glyph name="bar" format="1">
  <advance width="80"/>
  <unicode hex="007C"/>
  <outline>
    <contour>
      <point x="6" y="-416" type="line"/>
      <point x="76" y="-416" type="line"/>
      <point x="76" y="-361" type="line"/>
      <point x="6" y="-361" type="line"/>
    </contour>
    <contour>
      <point x="6" y="880" type="line"/>
      <point x="76" y="880" type="line"/>
      <point x="76" y="935" type="line"/>
      <point x="6" y="935" type="line"/>
    </contour>
    <contour>
      <point x="6" y="804" type="line"/>
      <point x="6" y="786" type="line"/>
      <point x="76" y="786" type="line"/>
      <point x="76" y="804" type="line"/>
    </contour>
    <contour>
      <point x="6" y="508" type="line"/>
      <point x="76" y="508" type="line"/>
      <point x="76" y="751" type="line"/>
      <point x="6" y="751" type="line"/>
    </contour>
    <contour>
      <point x="6" y="1" type="line"/>
      <point x="76" y="1" type="line"/>
      <point x="76" y="505" type="line"/>
      <point x="6" y="505" type="line"/>
    </contour>
    <contour>
      <point x="6" y="-290" type="line"/>
      <point x="76" y="-290" type="line"/>
      <point x="76" y="-1" type="line"/>
      <point x="6" y="-1" type="line"/>
    </contour>
  </outline>
</glyph>
